<?xml version="1.0" standalone="no"?>
<!DOCTYPE svg PUBLIC "-//W3C//DTD SVG 20010904//EN"
 "http://www.w3.org/TR/2001/REC-SVG-20010904/DTD/svg10.dtd">
<svg version="1.0" xmlns="http://www.w3.org/2000/svg"
 width="1020.000000pt" height="1020.000000pt" viewBox="0 0 1020.000000 1020.000000"
 preserveAspectRatio="xMidYMid meet">
<metadata>
Created by potrace 1.14, written by Peter Selinger 2001-2017
</metadata>
<g transform="translate(0.000000,1020.000000) scale(0.100000,-0.100000)"
fill="#000000" stroke="none">
<path d="M7080 6990 l0 -110 -175 0 -175 0 0 60 0 60 -60 0 -60 0 0 -60 0 -60
60 0 60 0 0 -175 0 -175 175 0 175 0 0 -70 0 -70 70 0 70 0 0 -70 0 -70 -30 0
c-27 0 -30 -3 -30 -30 0 -27 3 -30 30 -30 27 0 30 3 30 30 l0 30 70 0 70 0 0
-30 c0 -27 3 -30 30 -30 27 0 30 3 30 30 0 27 -3 30 -30 30 l-30 0 0 70 0 70
30 0 c27 0 30 3 30 30 0 27 -3 30 -30 30 -27 0 -30 -3 -30 -30 l0 -30 -70 0
-70 0 0 70 0 70 -70 0 -70 0 0 175 0 175 110 0 110 0 0 110 0 110 -110 0 -110
0 0 -110z"/>
<path d="M2798 6523 c-3 -4 -6 -369 -7 -810 l-2 -803 305 0 c238 0 306 3 307
13 1 6 2 257 3 557 l1 545 305 3 c185 2 342 -1 398 -8 157 -19 281 -64 396
-142 71 -48 186 -162 186 -184 0 -8 5 -12 10 -9 6 3 10 1 10 -6 0 -7 10 -24
23 -37 12 -14 15 -21 7 -17 -12 7 -13 6 -3 -7 7 -8 10 -18 6 -21 -3 -4 -1 -7
5 -7 7 0 11 -3 10 -7 -1 -7 5 -25 29 -83 7 -17 6 -15 27 -130 25 -142 7 -348
-42 -477 -57 -151 -172 -288 -309 -370 -88 -52 -223 -98 -333 -114 -50 -7
-217 -12 -400 -13 l-315 -1 -3 -258 -2 -258 362 5 c208 2 380 8 403 14 22 6
65 13 95 15 30 3 62 7 70 10 8 4 29 8 45 11 17 2 57 12 90 21 33 9 65 18 70
19 6 2 21 8 35 13 14 6 50 21 80 33 55 21 211 100 220 111 3 3 27 20 54 38 26
19 79 62 116 97 37 35 74 64 81 64 8 0 50 -35 94 -78 95 -92 284 -226 370
-263 5 -2 9 -6 8 -9 -1 -3 8 -6 20 -6 24 -1 139 -43 147 -53 3 -3 19 -7 35 -9
17 -1 37 -5 45 -9 37 -15 117 -18 425 -17 366 0 397 2 388 18 -3 6 0 5 7 -1
11 -10 17 -9 32 4 14 12 18 13 18 3 0 -9 5 -7 15 6 11 14 14 15 15 4 0 -11 3
-12 8 -3 4 6 19 13 33 15 14 2 34 11 43 21 23 22 32 22 15 0 -7 -10 -1 -7 14
6 15 14 27 20 27 15 0 -5 5 -2 10 6 9 13 10 13 10 0 0 -10 7 -7 21 10 11 14
18 19 14 12 -6 -11 -3 -11 13 -1 12 7 18 17 16 21 -3 4 4 8 15 8 12 0 21 5 21
11 0 6 7 9 15 5 8 -3 14 -2 14 2 -3 19 2 25 11 12 8 -13 10 -13 10 2 0 19 39
50 52 42 4 -3 11 2 14 10 3 9 13 16 20 16 8 0 19 11 24 25 11 28 23 35 13 8
-5 -15 -3 -14 10 2 8 11 13 23 11 27 -3 5 2 8 10 8 9 0 16 5 16 11 0 5 4 7 10
4 6 -4 7 1 3 11 -4 12 -3 15 6 10 8 -5 14 0 18 14 4 16 8 18 14 8 7 -10 9 -10
9 3 0 8 10 26 21 38 16 17 19 25 9 31 -10 6 -9 9 1 13 10 4 9 6 -3 6 -10 1
-18 6 -18 11 0 6 -7 10 -17 10 -9 0 -14 3 -10 6 3 4 -1 13 -9 21 -8 8 -11 19
-8 25 4 7 2 8 -5 4 -6 -4 -8 -13 -5 -19 4 -7 -7 3 -24 21 -30 30 -44 37 -65
33 -5 -1 -6 3 -2 9 3 6 12 7 18 3 7 -4 7 -1 -1 9 -8 10 -20 14 -29 11 -11 -4
-14 -2 -9 5 4 7 2 12 -6 12 -17 0 -41 37 -33 51 4 5 3 9 -2 8 -24 -4 -43 3
-43 15 0 7 -12 21 -26 31 -14 9 -23 22 -21 30 4 9 -1 11 -15 7 -14 -3 -19 -1
-14 6 9 15 3 15 -28 1 -14 -7 -23 -16 -20 -20 3 -5 -2 -9 -11 -9 -8 0 -20 -10
-25 -22 -5 -13 -9 -19 -9 -13 -1 5 -8 -1 -17 -13 -8 -12 -21 -22 -29 -22 -9 0
-12 -6 -8 -17 5 -13 2 -15 -15 -11 -15 4 -22 2 -22 -9 0 -8 -4 -11 -10 -8 -5
3 -10 -1 -10 -11 0 -14 -2 -15 -17 -3 -13 11 -15 11 -9 1 5 -9 1 -15 -13 -19
-12 -3 -21 -10 -21 -15 0 -5 -4 -7 -9 -3 -5 3 -12 1 -16 -5 -4 -6 -10 -8 -15
-5 -4 3 -10 -2 -14 -10 -3 -8 -14 -15 -25 -15 -11 0 -26 -6 -33 -12 -7 -7 -25
-13 -40 -12 -16 1 -28 -2 -28 -6 0 -7 -4 -8 -63 -12 -21 -2 -42 -9 -46 -17 -7
-11 -10 -11 -15 0 -3 8 -8 10 -11 4 -6 -13 -244 -11 -254 1 -3 5 -19 10 -36
11 -59 4 -75 7 -75 16 0 4 -4 5 -10 2 -5 -3 -10 -2 -10 3 0 6 -9 8 -20 5 -11
-3 -20 -1 -20 5 0 5 -7 13 -16 16 -8 3 -13 2 -10 -3 4 -5 -3 -7 -14 -4 -11 3
-20 12 -20 19 0 17 -20 19 -20 2 -1 -8 -6 -6 -14 5 -12 16 -28 23 -58 26 -4 1
-4 8 -1 18 4 11 3 14 -6 9 -7 -5 -22 3 -38 18 -24 24 -31 28 -49 25 -4 0 -19
18 -33 40 -22 33 -30 38 -41 28 -8 -8 -11 -8 -6 0 3 6 2 13 -3 15 -5 1 -11 12
-13 23 -1 11 -9 23 -17 26 -8 3 -16 14 -17 25 -2 10 -8 20 -13 22 -6 2 -11 12
-11 22 0 20 -23 43 -33 33 -4 -3 -7 6 -7 20 0 15 -4 27 -8 27 -4 0 -9 12 -10
27 -1 15 -7 30 -13 34 -8 5 -8 8 0 13 6 4 9 12 5 17 -3 5 -11 6 -17 2 -7 -4
-6 0 2 10 12 15 11 17 -5 17 -16 0 -17 2 -4 10 13 9 13 10 0 10 -13 0 -13 1 0
10 8 5 10 10 5 10 -6 0 -12 12 -13 27 -1 15 -8 30 -15 35 -8 5 -9 8 0 8 6 0
10 8 8 18 -2 9 -4 17 -6 17 -1 0 -3 50 -4 110 -1 88 1 114 14 129 12 14 12 17
2 11 -11 -6 -13 -4 -7 11 5 10 9 30 11 44 4 48 5 51 14 46 5 -4 7 2 4 12 -2
11 3 26 12 36 9 9 12 16 7 16 -6 0 -8 9 -5 20 3 11 9 20 14 20 5 0 9 9 9 20 0
11 5 20 11 20 6 0 9 6 6 13 -2 6 3 18 12 25 13 11 13 12 1 7 -8 -4 -6 1 4 9
11 9 16 16 12 16 -5 0 -3 6 3 13 6 8 7 18 3 22 -4 5 -1 5 6 1 6 -4 12 -2 12 4
0 6 6 8 13 4 6 -4 9 -4 5 1 -4 4 -2 15 5 23 9 13 9 14 0 8 -9 -5 -11 -2 -7 8
3 9 11 16 16 16 6 0 8 6 5 14 -4 10 1 13 18 11 14 -1 22 2 19 7 -8 12 16 39
27 32 5 -3 9 -2 8 3 -3 19 2 33 12 33 5 0 7 -5 3 -12 -4 -7 -3 -8 5 -4 6 4 9
11 6 16 -3 5 5 14 17 21 13 7 29 19 36 28 8 9 11 10 7 4 -3 -7 -1 -13 4 -13 6
0 11 7 11 17 0 9 3 13 7 10 3 -4 12 1 19 11 11 14 13 14 14 2 0 -10 7 -7 21
10 11 14 18 19 14 13 -7 -15 11 -18 20 -3 3 6 15 10 26 10 11 0 17 5 14 10 -4
6 5 10 19 10 14 0 26 4 26 8 0 5 16 9 36 10 20 1 43 7 50 13 8 6 25 9 39 7 14
-3 29 0 35 7 7 8 86 11 291 11 174 -1 283 3 287 9 7 11 10 443 4 463 -5 16
-892 18 -892 2 0 -5 -10 -10 -23 -10 -13 0 -28 -5 -35 -12 -9 -9 -12 -9 -12 2
0 9 -3 11 -8 5 -4 -5 -18 -16 -31 -23 -18 -11 -21 -11 -15 -1 4 7 -9 3 -29 -9
-21 -12 -37 -16 -37 -10 0 6 -8 1 -19 -10 -10 -12 -21 -18 -25 -15 -4 4 -10 2
-14 -4 -4 -6 -14 -13 -22 -15 -8 -2 -21 -10 -28 -18 -12 -13 -13 -13 -6 0 7
13 6 13 -12 0 -10 -8 -23 -21 -27 -27 -4 -7 -13 -13 -20 -13 -7 0 -6 4 3 10 8
5 10 10 5 10 -15 0 -45 -37 -37 -46 4 -4 2 -4 -5 0 -16 9 -61 -15 -92 -48 -13
-14 -27 -24 -30 -23 -3 2 -17 -8 -31 -21 -14 -14 -19 -21 -11 -17 10 6 12 4 7
-4 -5 -7 -14 -10 -22 -7 -8 3 -13 1 -11 -3 1 -5 -10 -20 -25 -34 -15 -14 -24
-28 -21 -31 6 -6 -13 -10 -31 -7 -5 1 -3 -5 4 -14 11 -13 10 -15 -4 -9 -9 3
-16 1 -16 -6 0 -6 -4 -9 -9 -6 -5 4 -11 0 -14 -6 -3 -10 -8 -9 -22 2 -11 9
-16 10 -11 3 4 -7 3 -13 -2 -13 -5 0 -12 9 -15 20 -3 11 -12 20 -21 20 -9 0
-16 7 -16 16 0 8 -4 12 -10 9 -5 -3 -10 1 -10 10 0 10 -5 13 -12 9 -8 -5 -9
-2 -5 9 4 10 2 16 -6 14 -7 -1 -11 3 -10 10 2 7 -4 10 -12 7 -9 -4 -15 0 -15
10 0 9 -5 16 -11 16 -5 0 -7 -6 -4 -12 4 -7 0 -5 -8 5 -8 9 -18 17 -23 17 -5
0 -16 9 -24 20 -10 14 -16 16 -22 7 -5 -8 -8 -7 -8 6 0 15 -11 22 -32 18 -5 0
-8 7 -8 16 0 15 -2 16 -10 3 -8 -13 -10 -12 -10 3 0 10 -4 15 -10 12 -5 -3
-10 -1 -10 4 0 6 -9 11 -20 11 -11 0 -20 6 -20 14 0 9 -7 12 -20 9 -11 -3 -20
0 -20 6 0 6 -14 11 -31 11 -17 0 -28 4 -24 10 5 9 -15 15 -37 11 -5 0 -8 4 -8
10 0 6 -7 9 -15 6 -8 -4 -17 -2 -20 4 -4 5 -11 7 -16 4 -5 -4 -9 -1 -9 5 0 6
-4 8 -10 5 -5 -3 -10 -2 -10 3 0 6 -9 8 -20 5 -11 -3 -20 -1 -20 4 0 5 -12 10
-26 11 -14 1 -31 5 -37 9 -6 4 -27 8 -46 10 -20 2 -38 7 -41 11 -3 4 -32 8
-66 9 -33 1 -72 7 -86 12 -30 11 -1384 15 -1390 4z m2592 -217 c0 -2 -8 -10
-17 -17 -16 -13 -17 -12 -4 4 13 16 21 21 21 13z"/>
<path d="M6730 5875 l0 -175 -60 0 -60 0 0 -60 0 -60 60 0 60 0 0 60 0 60 175
0 175 0 0 -60 0 -60 60 0 60 0 0 -30 c0 -27 3 -30 30 -30 27 0 30 3 30 30 0
27 -3 30 -30 30 l-30 0 0 60 0 60 60 0 60 0 0 60 c0 47 3 60 15 60 8 0 15 7
15 15 0 8 -7 15 -15 15 -8 0 -15 -7 -15 -15 0 -12 -13 -15 -60 -15 l-60 0 0
-60 0 -60 -60 0 -60 0 0 175 0 175 -175 0 -175 0 0 -175z"/>
<path d="M5605 4700 c-3 -5 -1 -10 4 -10 6 0 11 5 11 10 0 6 -2 10 -4 10 -3 0
-8 -4 -11 -10z"/>
<path d="M4947 3616 c-103 -38 -168 -128 -173 -239 -3 -73 17 -133 63 -186 49
-58 104 -84 181 -87 78 -3 139 18 189 65 l36 34 -29 24 c-67 55 -70 57 -101
34 -87 -63 -193 -2 -193 111 0 65 63 129 120 123 14 -2 30 -4 36 -4 6 -1 23
-12 37 -25 l25 -24 51 37 c27 20 50 39 50 42 2 12 -55 62 -92 80 -50 26 -151
34 -200 15z"/>
<path d="M6498 3620 c-80 -24 -124 -86 -114 -164 8 -74 46 -106 174 -145 99
-31 118 -45 101 -72 -14 -23 -127 -18 -169 9 -19 12 -38 22 -41 22 -3 0 -20
-22 -37 -49 l-30 -50 23 -15 c58 -38 119 -54 205 -52 71 1 93 5 129 26 62 35
84 68 83 125 -2 86 -45 129 -162 160 -111 31 -139 52 -108 83 24 24 105 9 160
-30 27 -18 27 -18 39 4 7 13 15 25 18 28 3 3 12 15 19 28 10 18 10 27 2 38
-13 15 -64 43 -95 51 -35 9 -169 11 -197 3z"/>
<path d="M2778 3613 c-4 -7 -3 -472 1 -496 2 -15 230 -6 283 11 96 31 166 114
175 208 12 128 -58 229 -189 270 -43 13 -264 19 -270 7z m243 -144 c53 -21 77
-105 46 -164 -22 -43 -68 -64 -122 -56 -7 0 -10 44 -9 119 1 64 2 118 3 119 2
4 57 -8 82 -18z"/>
<path d="M3436 3611 c-6 -9 -126 -333 -166 -448 l-19 -53 78 0 79 0 16 40 16
40 95 0 c76 0 95 -3 95 -15 0 -8 5 -26 12 -40 11 -24 15 -25 91 -25 71 0 78 2
72 18 -4 9 -22 58 -40 107 -103 278 -135 366 -135 375 0 13 -187 13 -194 1z
m123 -229 c11 -34 21 -64 21 -67 0 -3 -23 -5 -51 -5 -44 0 -50 2 -45 17 4 9
15 43 24 75 9 31 20 54 23 50 4 -4 16 -35 28 -70z"/>
<path d="M3749 3610 c0 -5 0 -30 0 -55 0 -25 0 -51 0 -58 1 -10 18 -13 63 -13
l63 1 0 -185 0 -185 80 0 79 0 0 186 0 185 63 -1 c35 0 63 3 64 7 1 4 1 31 1
58 0 28 0 55 -1 60 -1 6 -77 10 -206 10 -130 0 -205 -4 -206 -10z"/>
<path d="M4316 3588 c-8 -18 -37 -98 -66 -178 -28 -80 -56 -154 -60 -165 -5
-11 -18 -46 -29 -77 l-21 -58 79 0 79 0 16 40 16 40 90 0 c89 0 90 0 105 -30
8 -16 14 -33 13 -37 -2 -5 35 -9 80 -11 46 -2 82 1 80 6 -1 5 -43 120 -93 255
l-90 247 -93 0 -93 0 -13 -32z m154 -275 c0 -2 -22 -3 -50 -3 -27 0 -50 2 -50
3 0 4 36 110 46 137 3 9 16 -17 30 -60 13 -41 24 -76 24 -77z"/>
<path d="M5315 3368 l0 -253 78 -3 c42 -2 78 1 78 5 1 4 2 39 3 78 l2 70 35 1
c36 1 37 0 75 -77 l38 -79 78 0 c43 0 78 3 78 6 0 3 -21 45 -46 93 l-47 88 29
32 c81 91 48 229 -66 274 -28 11 -81 15 -187 16 l-148 2 0 -253z m276 101 c26
-42 -2 -69 -74 -69 -43 0 -43 1 -42 33 0 17 4 37 7 43 10 16 98 11 109 -7z"/>
<path d="M5848 3613 c-7 -13 -2 -295 6 -345 9 -61 53 -119 107 -145 35 -16 61
-20 122 -19 67 2 83 6 120 32 26 18 51 48 66 78 23 47 25 60 26 228 l1 178
-78 0 c-74 0 -78 -1 -79 -22 0 -13 -1 -88 -2 -168 -2 -145 -10 -181 -41 -193
-23 -9 -60 1 -73 20 -15 19 -15 23 -17 216 l-1 142 -77 3 c-42 2 -78 -1 -80
-5z"/>
<path d="M6889 3613 c-1 -4 -2 -120 -2 -256 l-2 -248 80 3 80 3 1 65 c1 36 2
70 3 76 1 10 115 14 125 3 3 -3 7 -38 8 -77 l2 -72 78 0 78 0 0 255 0 255 -80
0 -79 0 0 -87 c1 -149 9 -134 -68 -131 l-68 3 0 105 0 105 -77 3 c-43 2 -78
-1 -79 -5z"/>
</g>
</svg>
